{"title":"The.Avengers.2012.BRRip.720p.x264.Feel-Free","uid":7562358,"size":3676784578,"categoryP":"video","categoryS":"hd___movies","magnet":"?xt=urn:btih:a5acd5b6a434283203d19ffba9218bc6f88053a9&amp;dn=The.Avengers.2012.BRRip.720p.x264.Feel-Free&amp;tr=udp%3A%2F%2Ftracker.openbittorrent.com%3A80&amp;tr=udp%3A%2F%2Fopen.demonii.com%3A1337&amp;tr=udp%3A%2F%2Ftracker.coppersurfer.tk%3A6969&amp;tr=udp%3A%2F%2Fexodus.desync.com%3A6969","seeders":0,"leechers":0,"uploader":"Gh0stNet","files":9,"time":1345773036,"description":"Genre:Action | Adventure | Sci-Fi\nLanguage:English\nIMDb:http://www.imdb.com/title/tt0848228/\nSource:1080p.BluRay.DTS.x264-PublicHD Thanks!\nSUBTITLES:English\nEncoder:Tony\n\nFormat : MPEG-4\nFormat profile : Base Media\nCodec ID : isom\nFile size : 3.42 GiB\nDuration : 2h 22mn\nOverall bit rate mode : Variable\nOverall bit rate : 3 425 Kbps\n\nVideo\nID : 1\nFormat : AVC\nFormat/Info : Advanced Video Codec\nFormat profile : &lt;a class=&quot;__cf_email__&quot; href=&quot;/cdn-cgi/l/email-protection&quot; data-cfemail=&quot;c28aaba5aa828ef6ecf3&quot;&gt;[email&amp;#160;protected]&lt;/a&gt;&lt;script data-cfhash='f9e31' type=&quot;text/javascript&quot;&gt;\n/* &lt;![CDATA[ */!function(){try{var t=&quot;currentScript&quot;in document?document.currentScript:function(){for(var t=document.getElementsByTagName(&quot;script&quot;),e=t.length;e--;)if(t[e].getAttribute(&quot;data-cfhash&quot;))return t[e]}();if(t&amp;&amp;t.previousSibling){var e,r,n,i,c=t.previousSibling,a=c.getAttribute(&quot;data-cfemail&quot;);if(a){for(e=&quot;&quot;,r=parseInt(a.substr(0,2),16),n=2;a.length-n;n+=2)i=parseInt(a.substr(n,2),16)^r,e+=String.fromCharCode(i);e=document.createTextNode(e),c.parentNode.replaceChild(e,c)}t.parentNode.removeChild(t);}}catch(u){}}()/* ]]&gt; */&lt;/script&gt;\nFormat settings, CABAC : Yes\nFormat settings, ReFrames : 3 frames\nCodec ID : avc1\nCodec ID/Info : Advanced Video Coding\nDuration : 2h 22mn\nBit rate : 3 000 Kbps\nMaximum bit rate : 18.7 Mbps\nWidth : 1 280 pixels\nHeight : 720 pixels\nDisplay aspect ratio : 16:9\nFrame rate mode : Constant\nFrame rate : 23.976 fps\nColor space : YUV\nChroma subsampling : 4:2:0\nBit depth : 8 bits\nScan type : Progressive\nBits/(Pixel*Frame) : 0.136\nStream size : 2.97 GiB (87%)\nWriting library : x264\n\nAudio\nID : 2\nFormat : AAC\nFormat/Info : Advanced Audio Codec\nFormat profile : LC\nCodec ID : 40\nDuration : 2h 22mn\nBit rate mode : Variable\nBit rate : 447 Kbps\nMaximum bit rate : 538 Kbps\nChannel(s) : 6 channels\nChannel positions : Front: L C R, Side: L R, LFE\nSampling rate : 48.0 KHz\nCompression mode : Lossy\nStream size : 456 MiB (13%)\n\n\nPlot:\nNick Fury of S.H.I.E.L.D. brings together a team of super humans to form The Avengers to help save the Earth from Loki and his army.\n\n\n &lt;a href=&quot;\nhttp://img515.imageshack.us/img515/6471/vlcsnap2012082318h42m06.png&quot; rel=&quot;nofollow&quot; target=&quot;_NEW&quot;&gt;\nhttp://img515.imageshack.us/img515/6471/vlcsnap2012082318h42m06.png&lt;/a&gt; &lt;a href=&quot;\nhttp://img171.imageshack.us/img171/6765/vlcsnap2012082318h40m40.png&quot; rel=&quot;nofollow&quot; target=&quot;_NEW&quot;&gt;\nhttp://img171.imageshack.us/img171/6765/vlcsnap2012082318h40m40.png&lt;/a&gt; &lt;a href=&quot;\nhttp://img256.imageshack.us/img256/2868/vlcsnap2012082318h41m00.png&quot; rel=&quot;nofollow&quot; target=&quot;_NEW&quot;&gt;\nhttp://img256.imageshack.us/img256/2868/vlcsnap2012082318h41m00.png&lt;/a&gt; &lt;a href=&quot;\nhttp://img88.imageshack.us/img88/143/vlcsnap2012082318h41m27.png&quot; rel=&quot;nofollow&quot; target=&quot;_NEW&quot;&gt;\nhttp://img88.imageshack.us/img88/143/vlcsnap2012082318h41m27.png&lt;/a&gt; &lt;a href=&quot;\nhttp://img585.imageshack.us/img585/8292/vlcsnap2012082318h43m07.png&quot; rel=&quot;nofollow&quot; target=&quot;_NEW&quot;&gt;\nhttp://img585.imageshack.us/img585/8292/vlcsnap2012082318h43m07.png&lt;/a&gt;\n","torrent":{"xt":"urn:btih:a5acd5b6a434283203d19ffba9218bc6f88053a9","amp;dn":"The.Avengers.2012.BRRip.720p.x264.Feel-Free","amp;tr":["udp%3A%2F%2Ftracker.openbittorrent.com%3A80","udp%3A%2F%2Fopen.demonii.com%3A1337","udp%3A%2F%2Ftracker.coppersurfer.tk%3A6969","udp%3A%2F%2Fexodus.desync.com%3A6969"],"infoHash":"a5acd5b6a434283203d19ffba9218bc6f88053a9","infoHashBuffer":{"type":"Buffer","data":[165,172,213,182,164,52,40,50,3,209,159,251,169,33,139,198,248,128,83,169]},"announce":[],"urlList":[]}}